<svg xmlns="http://www.w3.org/2000/svg" viewBox="0 0 43.3 22.17"><defs><style>.cls-1{fill:#231f20;}</style></defs><g id="Layer_2" data-name="Layer 2"><g id="Layer_1-2" data-name="Layer 1"><rect class="cls-1" width="1.05" height="22.17"/><rect class="cls-1" x="9.95" y="9.77" width="2.62" height="22.17" transform="translate(32.12 9.59) rotate(90)"/><path d="M7.14,16.18l-.08-.73H7a2.17,2.17,0,0,1-1.77.86,1.66,1.66,0,0,1-1.78-1.66c0-1.41,1.25-2.18,3.49-2.17v-.11A1.2,1.2,0,0,0,5.64,11a2.93,2.93,0,0,0-1.51.43l-.24-.69a3.64,3.64,0,0,1,1.91-.52C7.57,10.24,8,11.45,8,12.62v2.17a8.47,8.47,0,0,0,.09,1.39Zm-.15-3c-1.16,0-2.46.18-2.46,1.3a.93.93,0,0,0,1,1,1.45,1.45,0,0,0,1.41-1A1.36,1.36,0,0,0,7,14.23Z"/><path d="M9.71,12.27c0-.74,0-1.34-.05-1.89h.95l.05,1h0a2.29,2.29,0,0,1,2.07-1.13c1.4,0,2.45,1.19,2.45,2.95,0,2.09-1.27,3.12-2.63,3.12a2,2,0,0,1-1.79-.91h0v3.16h-1Zm1,1.55a2.82,2.82,0,0,0,.05.43,1.63,1.63,0,0,0,1.59,1.23c1.11,0,1.76-.91,1.76-2.24,0-1.16-.61-2.16-1.73-2.16a1.68,1.68,0,0,0-1.59,1.31,1.56,1.56,0,0,0-.08.43Z"/><path d="M17.81,8.71v1.67h1.51v.8H17.81v3.13c0,.72.2,1.13.79,1.13a2.08,2.08,0,0,0,.61-.08l.05.79a2.42,2.42,0,0,1-.93.15,1.47,1.47,0,0,1-1.14-.44,2.18,2.18,0,0,1-.41-1.52V11.18h-.9v-.8h.9V9Z"/><path d="M25.69,13.23a2.83,2.83,0,0,1-2.89,3.08,2.76,2.76,0,0,1-2.78-3,2.83,2.83,0,0,1,2.88-3.08A2.75,2.75,0,0,1,25.69,13.23Zm-4.6.06c0,1.27.73,2.23,1.76,2.23s1.76-.95,1.76-2.25c0-1-.49-2.24-1.74-2.24S21.09,12.19,21.09,13.29Z"/><path d="M27,12.27c0-.74,0-1.34-.05-1.89h.95l.05,1h0a2.27,2.27,0,0,1,2.06-1.13c1.41,0,2.46,1.19,2.46,2.95,0,2.09-1.27,3.12-2.64,3.12a2,2,0,0,1-1.78-.91h0v3.16H27Zm1,1.55a2.82,2.82,0,0,0,.05.43,1.63,1.63,0,0,0,1.58,1.23c1.12,0,1.77-.91,1.77-2.24,0-1.16-.62-2.16-1.73-2.16a1.7,1.7,0,0,0-1.6,1.31,2,2,0,0,0-.07.43Z"/><path d="M33.71,15.1a2.79,2.79,0,0,0,1.39.42c.77,0,1.13-.38,1.13-.86s-.3-.78-1.08-1.07c-1-.37-1.54-.95-1.54-1.64a1.8,1.8,0,0,1,2-1.71A2.87,2.87,0,0,1,37,10.6l-.26.77A2.31,2.31,0,0,0,35.59,11c-.62,0-1,.37-1,.8s.35.69,1.11,1c1,.38,1.52.89,1.52,1.75,0,1-.79,1.74-2.17,1.74a3.3,3.3,0,0,1-1.63-.4Z"/><path d="M39,10.38l1.27,3.43c.13.38.28.84.37,1.18h0c.11-.34.23-.79.37-1.21l1.15-3.4H43.3l-1.59,4.13c-.75,2-1.27,3-2,3.64a2.9,2.9,0,0,1-1.29.68l-.27-.89a2.8,2.8,0,0,0,.93-.51A3.32,3.32,0,0,0,40,16.25a.76.76,0,0,0,.09-.25,1.36,1.36,0,0,0-.07-.28l-2.15-5.34Z"/></g></g></svg>